<?xml version="1.0" encoding="UTF-8"?>
<!DOCTYPE svg PUBLIC "-//W3C//DTD SVG 1.1//EN" "http://www.w3.org/Graphics/SVG/1.1/DTD/svg11.dtd">
<!-- Creator: CorelDRAW -->
<svg xmlns="http://www.w3.org/2000/svg" xml:space="preserve" width="478.545mm" height="110.562mm" version="1.1" style="shape-rendering:geometricPrecision; text-rendering:geometricPrecision; image-rendering:optimizeQuality; fill-rule:evenodd; clip-rule:evenodd"
viewBox="0 0 28712.25 6633.65"
 xmlns:xlink="http://www.w3.org/1999/xlink"
 xmlns:xodm="http://www.corel.com/coreldraw/odm/2003">
 <defs>
  <style type="text/css">
   <![CDATA[
    .fil0 {fill:#FEFEFE}
   ]]>
  </style>
 </defs>
 <g id="Camada_x0020_1">
  <metadata id="CorelCorpID_0Corel-Layer"/>
  <path class="fil0" d="M18896.89 832.79l8975.36 0c532.34,0 905.96,435.55 830.26,967.89l-549.6 3865.08c-75.7,532.34 -573.18,967.89 -1105.53,967.89l-8975.36 0c-532.34,0 -905.96,-435.55 -830.26,-967.89l46.01 -323.54c95.91,112.74 207.15,220.9 345.55,241.28 288.93,42.55 536.45,-204.18 479.55,-495.39 -28.6,-146.4 -315.93,-456.85 -420.34,-568.18l-249.26 -271.3 115.5 -812.29c48.98,32.8 101.89,56.47 159.68,65 291.79,43.05 536.41,-195.26 479.84,-493.65 -28.48,-150.32 -122.79,-218.47 -192.21,-301.21 -84.38,-100.56 -129.81,-164.93 -234.39,-261.21 -21.69,-19.97 -42.65,-40.91 -63.08,-62.6l82.75 -581.97c75.7,-532.34 573.19,-967.89 1105.53,-967.89zm-3350.99 2875.32l-1042.69 963.98c-129.2,126.07 -355.01,411.68 -580.36,434.92 -308.53,31.81 -532.71,-228.66 -432.89,-538.89 47.96,-149.07 135.08,-193.48 233.11,-278.61 291.09,-252.79 697.06,-690.96 1048.81,-980.09 94.04,-77.3 167.48,-163.65 257.99,-249.76 174.97,-166.44 554.26,-646.74 910.95,-210.13l449.45 524.2c38.79,46.65 64.82,83.07 104.85,127.11l577.28 651.67c100.75,111.33 377.87,421.78 401.65,568.18 47.31,291.21 -208.32,537.94 -495.86,495.39 -239.87,-35.5 -388.63,-337.23 -523.11,-465.73 -180.94,-172.91 -288.54,-346.65 -445.24,-528.15l-386.63 -447.63c-52.61,-59.87 -12.68,-30.43 -77.32,-66.46zm153.45 -2081.74l-775.85 726.84c-102.24,92.55 -174.27,143.55 -268.9,236.35 -129.74,127.24 -351.08,409.03 -578.51,435 -304.75,34.8 -529.16,-230.67 -433.45,-537.2 47.43,-151.89 143.1,-191.68 233.27,-278.8l524.86 -489.86c93.56,-88.5 163.65,-163.55 255.46,-252.13 175.73,-169.53 351.83,-318.76 525.24,-489.21 204.6,-201.12 576.54,-625.52 916.17,-210.9l677.78 782.35c161.67,157.23 280.2,373.12 444.42,529.02 101.42,96.28 144.72,160.65 225.79,261.21 66.71,82.74 158.77,150.9 182.31,301.21 46.75,298.4 -205.71,536.7 -496.09,493.65 -240.39,-35.65 -387.01,-335.37 -522.33,-464.64l-676.62 -784.01c-72.17,-90.69 -134.6,-204.69 -233.56,-258.9zm-2448.56 -1397.4c123.76,0 222.77,33 297.03,99.01 74.25,66.01 111.39,158.82 111.39,278.46 0,20.63 -4.13,55.69 -12.38,105.2 -28.88,148.52 -95.91,266.09 -201.11,352.72 -105.2,86.63 -227.93,129.95 -368.2,129.95 -123.76,0 -222.77,-33.01 -297.03,-99.01 -74.26,-66.01 -111.39,-158.83 -111.39,-278.46 0,-20.63 4.13,-55.7 12.38,-105.2 7.91,-40.65 18.68,-78.97 32.3,-114.98l-407.2 535.77c-231.02,-218.64 -451.73,-327.97 -662.13,-327.97 -111.38,0 -203.17,37.13 -275.37,111.38 -72.19,74.26 -123.76,155.74 -154.7,244.43 -30.94,88.7 -56.72,201.12 -77.35,337.25l952.97 0 -142.33 829.21 -952.97 0 -80.45 457.92 -222.77 1243.81 -49.51 303.21 -99.01 525.99c-45.38,222.77 -99.01,413.57 -160.89,572.4 -61.88,158.83 -145.42,313.53 -250.62,464.11 -105.2,150.58 -244.43,265.06 -417.7,343.44 -173.27,78.38 -377.47,117.57 -612.62,117.57 -156.77,0 -305.28,-34.03 -445.55,-102.1 -140.26,-68.07 -243.4,-137.17 -309.4,-207.3l-92.82 -99.01 259.9 -637.38c206.27,160.89 424.91,241.34 655.94,241.34 111.38,0 203.17,-37.13 275.37,-111.39 72.19,-74.25 123.76,-155.73 154.7,-244.43 30.94,-88.7 56.72,-201.11 77.35,-337.25l92.82 -525.99 49.51 -303.21 222.77 -1243.81 80.45 -457.92 -532.17 0 148.51 -829.21 532.18 0c45.38,-222.77 99.01,-413.57 160.89,-572.4 61.88,-158.83 145.43,-313.53 250.62,-464.11 105.2,-150.58 244.43,-265.06 417.7,-343.44 173.27,-78.38 377.47,-117.57 612.62,-117.57 111.39,0 223.8,17.53 337.25,52.6 113.45,35.06 211.42,77.35 293.94,126.86 82.5,49.51 157.79,100.04 225.86,151.61 68.07,51.57 120.67,95.92 157.8,133.05l34.18 34.18c32.26,-53.02 72.6,-99.48 121.04,-139.37 105.2,-86.64 227.93,-129.95 368.2,-129.95zm-674.5 1262.38l903.46 0 -606.43 3440.58 -903.46 0 606.43 -3440.58zm-4648.3 -74.26c441.42,0 799.3,132.02 1073.64,396.04 274.34,264.02 411.51,612.62 411.51,1045.78 0,99.01 -10.31,216.58 -30.94,352.72 -90.75,523.93 -335.18,955.03 -733.29,1293.32 -398.1,338.28 -848.8,507.42 -1352.1,507.42 -441.42,0 -799.3,-133.05 -1073.64,-399.13 -274.34,-266.09 -411.51,-615.72 -411.51,-1048.89 0,-99.01 10.31,-216.58 30.94,-352.72 90.76,-523.92 335.19,-954 733.29,-1290.22 398.1,-336.22 848.8,-504.33 1352.1,-504.33zm-142.32 804.46c-255.78,0 -484.73,92.82 -686.88,278.46 -202.14,185.64 -330.03,422.86 -383.66,711.63 -12.38,74.26 -18.57,146.45 -18.57,216.58 0,231.02 68.07,417.7 204.21,560.03 136.14,142.32 315.59,213.49 538.36,213.49 255.78,0 483.71,-92.82 683.79,-278.47 200.09,-185.64 326.94,-422.85 380.57,-711.63 12.38,-74.25 18.56,-146.45 18.56,-216.58 0,-231.02 -68.07,-417.7 -204.21,-560.02 -136.14,-142.33 -313.53,-213.49 -532.17,-213.49zm-1662.02 -804.46l-160.89 897.27c-383.66,0 -685.85,104.17 -906.56,312.5 -220.71,208.33 -353.75,448.64 -399.14,720.91l-278.46 1584.16 -897.27 0 600.24 -3440.58 903.47 0 -86.63 495.05c156.77,-177.39 343.44,-316.63 560.02,-417.7 216.58,-101.07 438.32,-151.61 665.22,-151.61zm-5356.32 -847.77l959.16 0 482.67 0c528.05,0 920.99,99.01 1178.83,297.03 257.83,198.02 386.75,468.23 386.75,810.64 0,99.01 -8.25,191.84 -24.75,278.47 -74.26,420.79 -280.53,758.04 -618.81,1011.75 -338.28,253.71 -808.58,380.57 -1410.88,380.57l-482.67 0 -278.46 1584.16 -959.16 0 767.32 -4362.61zm810.64 847.77l-191.83 1082.92 482.67 0c313.53,0 552.81,-40.22 717.82,-120.66 165.02,-80.45 266.09,-221.74 303.22,-423.89 8.25,-57.76 12.38,-96.95 12.38,-117.57 0,-156.77 -69.1,-266.09 -207.3,-327.97 -138.2,-61.88 -349.63,-92.82 -634.28,-92.82l-482.67 0zm17905.69 378.16l736.84 0 -181.04 1246.57c232.23,-201.87 516.59,-302.81 853.04,-302.81 349.91,0 629.19,102.62 837.81,307.86 208.63,205.24 318.64,481.13 330.04,827.69 3.55,107.66 -2.95,217.01 -19.49,328.04 -63.1,434.03 -239.05,787.31 -527.84,1059.84 -288.8,272.53 -635.07,408.79 -1038.82,408.79 -333.09,0 -588.81,-102.62 -767.16,-307.86l-32.4 242.25 -736.84 0 545.85 -3810.37zm1233.61 1599.85c-208.6,0 -392,75.7 -550.2,227.11 -158.21,151.4 -255.3,344.87 -291.29,580.38 -8.1,60.56 -11.21,119.45 -9.33,176.64 6.2,188.42 66.73,340.66 181.58,456.74 114.86,116.08 261.44,174.12 439.76,174.12 208.6,0 392.01,-75.7 550.2,-227.11 158.2,-151.41 255.3,-344.87 291.28,-580.39 8.1,-60.56 11.21,-119.44 9.33,-176.64 -6.2,-188.42 -66.73,-340.66 -181.58,-456.74 -114.85,-116.08 -261.43,-174.12 -439.76,-174.12zm3110.4 -656.09c312.9,0 573.45,70.65 781.66,211.97 208.2,141.31 316.46,338.14 324.76,590.48 7.42,225.43 -86.09,425.62 -280.53,600.58 -194.43,174.96 -461.56,262.44 -801.38,262.44l-984.14 0c9.45,185.05 71.49,332.25 186.12,441.59 114.63,109.35 261.11,164.03 439.43,164.03 265.8,0 484.1,-114.39 654.9,-343.18l580.92 322.99c-154.52,211.97 -348.42,377.68 -581.69,497.12 -233.27,119.44 -482.81,179.16 -748.61,179.16 -360.01,0 -655.42,-107.67 -886.25,-323 -230.83,-215.33 -352.06,-499.64 -363.68,-852.92 -2.66,-80.75 2.6,-176.64 15.77,-287.67 59.96,-427.3 249.46,-778.05 568.48,-1052.26 319.02,-274.21 683.77,-411.32 1094.25,-411.32zm227.81 711.61c-73.55,-37.01 -184.35,-55.52 -332.4,-55.52 -148.04,0 -286.37,39.53 -414.99,118.6 -128.61,79.07 -231.03,187.58 -307.23,325.52l716.65 0c131.22,0 239.71,-26.08 325.47,-78.22 85.76,-52.15 127.59,-110.19 125.49,-174.12 -1.77,-53.83 -39.44,-99.26 -112.99,-136.26zm1659.92 -1408.07l711.6 0 -111.35 757.03 721.7 0 -93.83 676.27 -721.69 0 -102.92 706.56c0.11,3.37 -0.62,6.73 -2.2,10.09 -1.57,3.37 -2.3,6.73 -2.19,10.09 -2.92,13.46 -9.22,52.15 -18.89,116.08 -9.67,63.93 -17.32,112.71 -22.94,146.36 -13.73,94.21 -19.43,176.64 -17.1,247.3 6.53,198.51 92.23,297.76 257.1,297.76 77.38,0 152.7,-11.78 225.94,-35.33 73.25,-23.56 127.93,-48.79 164.06,-75.7l54.35 -35.33 153.87 534.96c-19.52,20.18 -48.98,45.42 -88.35,75.7 -39.38,30.28 -123.84,70.65 -253.4,121.13 -129.56,50.47 -266.67,75.7 -411.35,75.7 -289.35,0 -494.39,-70.65 -615.12,-211.96 -120.73,-141.32 -185.24,-338.14 -193.55,-590.48 -5.09,-154.77 12.83,-376.83 53.78,-666.19l107.31 -726.75 -464.31 0 98.87 -676.27 459.26 0 111.35 -757.03z"/>
 </g>
</svg>
