<?xml version="1.0" encoding="UTF-8"?>
<!DOCTYPE svg PUBLIC "-//W3C//DTD SVG 1.1//EN" "http://www.w3.org/Graphics/SVG/1.1/DTD/svg11.dtd">
<!-- Creator: CorelDRAW -->
<svg xmlns="http://www.w3.org/2000/svg" xml:space="preserve" width="392.629mm" height="45.7936mm" version="1.1" style="shape-rendering:geometricPrecision; text-rendering:geometricPrecision; image-rendering:optimizeQuality; fill-rule:evenodd; clip-rule:evenodd"
viewBox="0 0 1283.27 149.67"
 xmlns:xlink="http://www.w3.org/1999/xlink"
 xmlns:xodm="http://www.corel.com/coreldraw/odm/2003">
 <defs>
  <style type="text/css">
   <![CDATA[
    .fil0 {fill:#FEFEFE;fill-rule:nonzero}
   ]]>
  </style>
 </defs>
 <g id="Camada_x0020_1">
  <metadata id="CorelCorpID_0Corel-Layer"/>
  <path class="fil0" d="M521.07 0l105.16 74.84 -105.16 74.83 0 -149.67zm135.96 0l105.16 74.84 -105.16 74.83 0 -149.67zm130.27 0l105.16 74.84 -105.16 74.83 0 -149.67zm130.27 0l105.16 74.84 -105.16 74.83 0 -149.67zm130.27 0l105.16 74.84 -105.16 74.83 0 -149.67zm130.27 0l105.16 74.84 -105.16 74.83 0 -149.67zm-1178.11 0l105.16 74.84 -105.16 74.83 0 -149.67zm130.27 0l105.16 74.84 -105.16 74.83 0 -149.67zm130.27 0l105.16 74.84 -105.16 74.83 0 -149.67zm130.27 0l105.16 74.84 -105.16 74.83 0 -149.67z"/>
 </g>
</svg>
